<svg xmlns="http://www.w3.org/2000/svg" viewBox="0 0 450 450" width="450" height="450"><rect width="450" height="450" fill="#FFF8F0"/><defs><linearGradient id="g" x1="0" y1="0" x2="1" y2="1"><stop offset="0" stop-color="#1E4FB5"/><stop offset="1" stop-color="#C22B45"/></linearGradient></defs><rect x="40" y="40" width="10" height="10" rx="3" fill="url(#g)"/><rect x="50" y="40" width="10" height="10" rx="3" fill="url(#g)"/><rect x="60" y="40" width="10" height="10" rx="3" fill="url(#g)"/><rect x="70" y="40" width="10" height="10" rx="3" fill="url(#g)"/><rect x="80" y="40" width="10" height="10" rx="3" fill="url(#g)"/><rect x="90" y="40" width="10" height="10" rx="3" fill="url(#g)"/><rect x="100" y="40" width="10" height="10" rx="3" fill="url(#g)"/><rect x="130" y="40" width="10" height="10" rx="3" fill="url(#g)"/><rect x="140" y="40" width="10" height="10" rx="3" fill="url(#g)"/><rect x="180" y="40" width="10" height="10" rx="3" fill="url(#g)"/><rect x="240" y="40" width="10" height="10" rx="3" fill="url(#g)"/><rect x="260" y="40" width="10" height="10" rx="3" fill="url(#g)"/><rect x="270" y="40" width="10" height="10" rx="3" fill="url(#g)"/><rect x="300" y="40" width="10" height="10" rx="3" fill="url(#g)"/><rect x="310" y="40" width="10" height="10" rx="3" fill="url(#g)"/><rect x="320" y="40" width="10" height="10" rx="3" fill="url(#g)"/><rect x="340" y="40" width="10" height="10" rx="3" fill="url(#g)"/><rect x="350" y="40" width="10" height="10" rx="3" fill="url(#g)"/><rect x="360" y="40" width="10" height="10" rx="3" fill="url(#g)"/><rect x="370" y="40" width="10" height="10" rx="3" fill="url(#g)"/><rect x="380" y="40" width="10" height="10" rx="3" fill="url(#g)"/><rect x="390" y="40" width="10" height="10" rx="3" fill="url(#g)"/><rect x="400" y="40" width="10" height="10" rx="3" fill="url(#g)"/><rect x="40" y="50" width="10" height="10" rx="3" fill="url(#g)"/><rect x="100" y="50" width="10" height="10" rx="3" fill="url(#g)"/><rect x="120" y="50" width="10" height="10" rx="3" fill="url(#g)"/><rect x="140" y="50" width="10" height="10" rx="3" fill="url(#g)"/><rect x="150" y="50" width="10" height="10" rx="3" fill="url(#g)"/><rect x="160" y="50" width="10" height="10" rx="3" fill="url(#g)"/><rect x="170" y="50" width="10" height="10" rx="3" fill="url(#g)"/><rect x="190" y="50" width="10" height="10" rx="3" fill="url(#g)"/><rect x="200" y="50" width="10" height="10" rx="3" fill="url(#g)"/><rect x="220" y="50" width="10" height="10" rx="3" fill="url(#g)"/><rect x="260" y="50" width="10" height="10" rx="3" fill="url(#g)"/><rect x="270" y="50" width="10" height="10" rx="3" fill="url(#g)"/><rect x="320" y="50" width="10" height="10" rx="3" fill="url(#g)"/><rect x="340" y="50" width="10" height="10" rx="3" fill="url(#g)"/><rect x="400" y="50" width="10" height="10" rx="3" fill="url(#g)"/><rect x="40" y="60" width="10" height="10" rx="3" fill="url(#g)"/><rect x="60" y="60" width="10" height="10" rx="3" fill="url(#g)"/><rect x="70" y="60" width="10" height="10" rx="3" fill="url(#g)"/><rect x="80" y="60" width="10" height="10" rx="3" fill="url(#g)"/><rect x="100" y="60" width="10" height="10" rx="3" fill="url(#g)"/><rect x="150" y="60" width="10" height="10" rx="3" fill="url(#g)"/><rect x="180" y="60" width="10" height="10" rx="3" fill="url(#g)"/><rect x="200" y="60" width="10" height="10" rx="3" fill="url(#g)"/><rect x="240" y="60" width="10" height="10" rx="3" fill="url(#g)"/><rect x="310" y="60" width="10" height="10" rx="3" fill="url(#g)"/><rect x="340" y="60" width="10" height="10" rx="3" fill="url(#g)"/><rect x="360" y="60" width="10" height="10" rx="3" fill="url(#g)"/><rect x="370" y="60" width="10" height="10" rx="3" fill="url(#g)"/><rect x="380" y="60" width="10" height="10" rx="3" fill="url(#g)"/><rect x="400" y="60" width="10" height="10" rx="3" fill="url(#g)"/><rect x="40" y="70" width="10" height="10" rx="3" fill="url(#g)"/><rect x="60" y="70" width="10" height="10" rx="3" fill="url(#g)"/><rect x="70" y="70" width="10" height="10" rx="3" fill="url(#g)"/><rect x="80" y="70" width="10" height="10" rx="3" fill="url(#g)"/><rect x="100" y="70" width="10" height="10" rx="3" fill="url(#g)"/><rect x="140" y="70" width="10" height="10" rx="3" fill="url(#g)"/><rect x="170" y="70" width="10" height="10" rx="3" fill="url(#g)"/><rect x="200" y="70" width="10" height="10" rx="3" fill="url(#g)"/><rect x="210" y="70" width="10" height="10" rx="3" fill="url(#g)"/><rect x="220" y="70" width="10" height="10" rx="3" fill="url(#g)"/><rect x="250" y="70" width="10" height="10" rx="3" fill="url(#g)"/><rect x="260" y="70" width="10" height="10" rx="3" fill="url(#g)"/><rect x="270" y="70" width="10" height="10" rx="3" fill="url(#g)"/><rect x="290" y="70" width="10" height="10" rx="3" fill="url(#g)"/><rect x="300" y="70" width="10" height="10" rx="3" fill="url(#g)"/><rect x="320" y="70" width="10" height="10" rx="3" fill="url(#g)"/><rect x="340" y="70" width="10" height="10" rx="3" fill="url(#g)"/><rect x="360" y="70" width="10" height="10" rx="3" fill="url(#g)"/><rect x="370" y="70" width="10" height="10" rx="3" fill="url(#g)"/><rect x="380" y="70" width="10" height="10" rx="3" fill="url(#g)"/><rect x="400" y="70" width="10" height="10" rx="3" fill="url(#g)"/><rect x="40" y="80" width="10" height="10" rx="3" fill="url(#g)"/><rect x="60" y="80" width="10" height="10" rx="3" fill="url(#g)"/><rect x="70" y="80" width="10" height="10" rx="3" fill="url(#g)"/><rect x="80" y="80" width="10" height="10" rx="3" fill="url(#g)"/><rect x="100" y="80" width="10" height="10" rx="3" fill="url(#g)"/><rect x="130" y="80" width="10" height="10" rx="3" fill="url(#g)"/><rect x="140" y="80" width="10" height="10" rx="3" fill="url(#g)"/><rect x="150" y="80" width="10" height="10" rx="3" fill="url(#g)"/><rect x="180" y="80" width="10" height="10" rx="3" fill="url(#g)"/><rect x="200" y="80" width="10" height="10" rx="3" fill="url(#g)"/><rect x="220" y="80" width="10" height="10" rx="3" fill="url(#g)"/><rect x="230" y="80" width="10" height="10" rx="3" fill="url(#g)"/><rect x="250" y="80" width="10" height="10" rx="3" fill="url(#g)"/><rect x="270" y="80" width="10" height="10" rx="3" fill="url(#g)"/><rect x="300" y="80" width="10" height="10" rx="3" fill="url(#g)"/><rect x="310" y="80" width="10" height="10" rx="3" fill="url(#g)"/><rect x="340" y="80" width="10" height="10" rx="3" fill="url(#g)"/><rect x="360" y="80" width="10" height="10" rx="3" fill="url(#g)"/><rect x="370" y="80" width="10" height="10" rx="3" fill="url(#g)"/><rect x="380" y="80" width="10" height="10" rx="3" fill="url(#g)"/><rect x="400" y="80" width="10" height="10" rx="3" fill="url(#g)"/><rect x="40" y="90" width="10" height="10" rx="3" fill="url(#g)"/><rect x="100" y="90" width="10" height="10" rx="3" fill="url(#g)"/><rect x="120" y="90" width="10" height="10" rx="3" fill="url(#g)"/><rect x="130" y="90" width="10" height="10" rx="3" fill="url(#g)"/><rect x="140" y="90" width="10" height="10" rx="3" fill="url(#g)"/><rect x="160" y="90" width="10" height="10" rx="3" fill="url(#g)"/><rect x="180" y="90" width="10" height="10" rx="3" fill="url(#g)"/><rect x="190" y="90" width="10" height="10" rx="3" fill="url(#g)"/><rect x="200" y="90" width="10" height="10" rx="3" fill="url(#g)"/><rect x="260" y="90" width="10" height="10" rx="3" fill="url(#g)"/><rect x="270" y="90" width="10" height="10" rx="3" fill="url(#g)"/><rect x="320" y="90" width="10" height="10" rx="3" fill="url(#g)"/><rect x="340" y="90" width="10" height="10" rx="3" fill="url(#g)"/><rect x="400" y="90" width="10" height="10" rx="3" fill="url(#g)"/><rect x="40" y="100" width="10" height="10" rx="3" fill="url(#g)"/><rect x="50" y="100" width="10" height="10" rx="3" fill="url(#g)"/><rect x="60" y="100" width="10" height="10" rx="3" fill="url(#g)"/><rect x="70" y="100" width="10" height="10" rx="3" fill="url(#g)"/><rect x="80" y="100" width="10" height="10" rx="3" fill="url(#g)"/><rect x="90" y="100" width="10" height="10" rx="3" fill="url(#g)"/><rect x="100" y="100" width="10" height="10" rx="3" fill="url(#g)"/><rect x="120" y="100" width="10" height="10" rx="3" fill="url(#g)"/><rect x="140" y="100" width="10" height="10" rx="3" fill="url(#g)"/><rect x="160" y="100" width="10" height="10" rx="3" fill="url(#g)"/><rect x="180" y="100" width="10" height="10" rx="3" fill="url(#g)"/><rect x="200" y="100" width="10" height="10" rx="3" fill="url(#g)"/><rect x="220" y="100" width="10" height="10" rx="3" fill="url(#g)"/><rect x="240" y="100" width="10" height="10" rx="3" fill="url(#g)"/><rect x="260" y="100" width="10" height="10" rx="3" fill="url(#g)"/><rect x="280" y="100" width="10" height="10" rx="3" fill="url(#g)"/><rect x="300" y="100" width="10" height="10" rx="3" fill="url(#g)"/><rect x="320" y="100" width="10" height="10" rx="3" fill="url(#g)"/><rect x="340" y="100" width="10" height="10" rx="3" fill="url(#g)"/><rect x="350" y="100" width="10" height="10" rx="3" fill="url(#g)"/><rect x="360" y="100" width="10" height="10" rx="3" fill="url(#g)"/><rect x="370" y="100" width="10" height="10" rx="3" fill="url(#g)"/><rect x="380" y="100" width="10" height="10" rx="3" fill="url(#g)"/><rect x="390" y="100" width="10" height="10" rx="3" fill="url(#g)"/><rect x="400" y="100" width="10" height="10" rx="3" fill="url(#g)"/><rect x="120" y="110" width="10" height="10" rx="3" fill="url(#g)"/><rect x="130" y="110" width="10" height="10" rx="3" fill="url(#g)"/><rect x="150" y="110" width="10" height="10" rx="3" fill="url(#g)"/><rect x="170" y="110" width="10" height="10" rx="3" fill="url(#g)"/><rect x="180" y="110" width="10" height="10" rx="3" fill="url(#g)"/><rect x="220" y="110" width="10" height="10" rx="3" fill="url(#g)"/><rect x="230" y="110" width="10" height="10" rx="3" fill="url(#g)"/><rect x="270" y="110" width="10" height="10" rx="3" fill="url(#g)"/><rect x="290" y="110" width="10" height="10" rx="3" fill="url(#g)"/><rect x="80" y="120" width="10" height="10" rx="3" fill="url(#g)"/><rect x="90" y="120" width="10" height="10" rx="3" fill="url(#g)"/><rect x="100" y="120" width="10" height="10" rx="3" fill="url(#g)"/><rect x="110" y="120" width="10" height="10" rx="3" fill="url(#g)"/><rect x="130" y="120" width="10" height="10" rx="3" fill="url(#g)"/><rect x="160" y="120" width="10" height="10" rx="3" fill="url(#g)"/><rect x="200" y="120" width="10" height="10" rx="3" fill="url(#g)"/><rect x="220" y="120" width="10" height="10" rx="3" fill="url(#g)"/><rect x="230" y="120" width="10" height="10" rx="3" fill="url(#g)"/><rect x="240" y="120" width="10" height="10" rx="3" fill="url(#g)"/><rect x="250" y="120" width="10" height="10" rx="3" fill="url(#g)"/><rect x="270" y="120" width="10" height="10" rx="3" fill="url(#g)"/><rect x="280" y="120" width="10" height="10" rx="3" fill="url(#g)"/><rect x="290" y="120" width="10" height="10" rx="3" fill="url(#g)"/><rect x="310" y="120" width="10" height="10" rx="3" fill="url(#g)"/><rect x="320" y="120" width="10" height="10" rx="3" fill="url(#g)"/><rect x="340" y="120" width="10" height="10" rx="3" fill="url(#g)"/><rect x="350" y="120" width="10" height="10" rx="3" fill="url(#g)"/><rect x="390" y="120" width="10" height="10" rx="3" fill="url(#g)"/><rect x="50" y="130" width="10" height="10" rx="3" fill="url(#g)"/><rect x="70" y="130" width="10" height="10" rx="3" fill="url(#g)"/><rect x="80" y="130" width="10" height="10" rx="3" fill="url(#g)"/><rect x="110" y="130" width="10" height="10" rx="3" fill="url(#g)"/><rect x="120" y="130" width="10" height="10" rx="3" fill="url(#g)"/><rect x="140" y="130" width="10" height="10" rx="3" fill="url(#g)"/><rect x="150" y="130" width="10" height="10" rx="3" fill="url(#g)"/><rect x="190" y="130" width="10" height="10" rx="3" fill="url(#g)"/><rect x="200" y="130" width="10" height="10" rx="3" fill="url(#g)"/><rect x="220" y="130" width="10" height="10" rx="3" fill="url(#g)"/><rect x="240" y="130" width="10" height="10" rx="3" fill="url(#g)"/><rect x="250" y="130" width="10" height="10" rx="3" fill="url(#g)"/><rect x="260" y="130" width="10" height="10" rx="3" fill="url(#g)"/><rect x="280" y="130" width="10" height="10" rx="3" fill="url(#g)"/><rect x="300" y="130" width="10" height="10" rx="3" fill="url(#g)"/><rect x="340" y="130" width="10" height="10" rx="3" fill="url(#g)"/><rect x="60" y="140" width="10" height="10" rx="3" fill="url(#g)"/><rect x="70" y="140" width="10" height="10" rx="3" fill="url(#g)"/><rect x="80" y="140" width="10" height="10" rx="3" fill="url(#g)"/><rect x="90" y="140" width="10" height="10" rx="3" fill="url(#g)"/><rect x="100" y="140" width="10" height="10" rx="3" fill="url(#g)"/><rect x="110" y="140" width="10" height="10" rx="3" fill="url(#g)"/><rect x="140" y="140" width="10" height="10" rx="3" fill="url(#g)"/><rect x="180" y="140" width="10" height="10" rx="3" fill="url(#g)"/><rect x="210" y="140" width="10" height="10" rx="3" fill="url(#g)"/><rect x="220" y="140" width="10" height="10" rx="3" fill="url(#g)"/><rect x="230" y="140" width="10" height="10" rx="3" fill="url(#g)"/><rect x="290" y="140" width="10" height="10" rx="3" fill="url(#g)"/><rect x="300" y="140" width="10" height="10" rx="3" fill="url(#g)"/><rect x="310" y="140" width="10" height="10" rx="3" fill="url(#g)"/><rect x="330" y="140" width="10" height="10" rx="3" fill="url(#g)"/><rect x="360" y="140" width="10" height="10" rx="3" fill="url(#g)"/><rect x="380" y="140" width="10" height="10" rx="3" fill="url(#g)"/><rect x="40" y="150" width="10" height="10" rx="3" fill="url(#g)"/><rect x="50" y="150" width="10" height="10" rx="3" fill="url(#g)"/><rect x="60" y="150" width="10" height="10" rx="3" fill="url(#g)"/><rect x="70" y="150" width="10" height="10" rx="3" fill="url(#g)"/><rect x="110" y="150" width="10" height="10" rx="3" fill="url(#g)"/><rect x="130" y="150" width="10" height="10" rx="3" fill="url(#g)"/><rect x="160" y="150" width="10" height="10" rx="3" fill="url(#g)"/><rect x="200" y="150" width="10" height="10" rx="3" fill="url(#g)"/><rect x="260" y="150" width="10" height="10" rx="3" fill="url(#g)"/><rect x="280" y="150" width="10" height="10" rx="3" fill="url(#g)"/><rect x="300" y="150" width="10" height="10" rx="3" fill="url(#g)"/><rect x="310" y="150" width="10" height="10" rx="3" fill="url(#g)"/><rect x="320" y="150" width="10" height="10" rx="3" fill="url(#g)"/><rect x="330" y="150" width="10" height="10" rx="3" fill="url(#g)"/><rect x="350" y="150" width="10" height="10" rx="3" fill="url(#g)"/><rect x="360" y="150" width="10" height="10" rx="3" fill="url(#g)"/><rect x="370" y="150" width="10" height="10" rx="3" fill="url(#g)"/><rect x="380" y="150" width="10" height="10" rx="3" fill="url(#g)"/><rect x="390" y="150" width="10" height="10" rx="3" fill="url(#g)"/><rect x="40" y="160" width="10" height="10" rx="3" fill="url(#g)"/><rect x="60" y="160" width="10" height="10" rx="3" fill="url(#g)"/><rect x="70" y="160" width="10" height="10" rx="3" fill="url(#g)"/><rect x="90" y="160" width="10" height="10" rx="3" fill="url(#g)"/><rect x="100" y="160" width="10" height="10" rx="3" fill="url(#g)"/><rect x="140" y="160" width="10" height="10" rx="3" fill="url(#g)"/><rect x="150" y="160" width="10" height="10" rx="3" fill="url(#g)"/><rect x="160" y="160" width="10" height="10" rx="3" fill="url(#g)"/><rect x="180" y="160" width="10" height="10" rx="3" fill="url(#g)"/><rect x="210" y="160" width="10" height="10" rx="3" fill="url(#g)"/><rect x="220" y="160" width="10" height="10" rx="3" fill="url(#g)"/><rect x="280" y="160" width="10" height="10" rx="3" fill="url(#g)"/><rect x="330" y="160" width="10" height="10" rx="3" fill="url(#g)"/><rect x="340" y="160" width="10" height="10" rx="3" fill="url(#g)"/><rect x="370" y="160" width="10" height="10" rx="3" fill="url(#g)"/><rect x="390" y="160" width="10" height="10" rx="3" fill="url(#g)"/><rect x="50" y="170" width="10" height="10" rx="3" fill="url(#g)"/><rect x="80" y="170" width="10" height="10" rx="3" fill="url(#g)"/><rect x="90" y="170" width="10" height="10" rx="3" fill="url(#g)"/><rect x="140" y="170" width="10" height="10" rx="3" fill="url(#g)"/><rect x="160" y="170" width="10" height="10" rx="3" fill="url(#g)"/><rect x="200" y="170" width="10" height="10" rx="3" fill="url(#g)"/><rect x="210" y="170" width="10" height="10" rx="3" fill="url(#g)"/><rect x="230" y="170" width="10" height="10" rx="3" fill="url(#g)"/><rect x="250" y="170" width="10" height="10" rx="3" fill="url(#g)"/><rect x="260" y="170" width="10" height="10" rx="3" fill="url(#g)"/><rect x="300" y="170" width="10" height="10" rx="3" fill="url(#g)"/><rect x="310" y="170" width="10" height="10" rx="3" fill="url(#g)"/><rect x="330" y="170" width="10" height="10" rx="3" fill="url(#g)"/><rect x="350" y="170" width="10" height="10" rx="3" fill="url(#g)"/><rect x="360" y="170" width="10" height="10" rx="3" fill="url(#g)"/><rect x="380" y="170" width="10" height="10" rx="3" fill="url(#g)"/><rect x="390" y="170" width="10" height="10" rx="3" fill="url(#g)"/><rect x="50" y="180" width="10" height="10" rx="3" fill="url(#g)"/><rect x="60" y="180" width="10" height="10" rx="3" fill="url(#g)"/><rect x="70" y="180" width="10" height="10" rx="3" fill="url(#g)"/><rect x="80" y="180" width="10" height="10" rx="3" fill="url(#g)"/><rect x="100" y="180" width="10" height="10" rx="3" fill="url(#g)"/><rect x="110" y="180" width="10" height="10" rx="3" fill="url(#g)"/><rect x="130" y="180" width="10" height="10" rx="3" fill="url(#g)"/><rect x="140" y="180" width="10" height="10" rx="3" fill="url(#g)"/><rect x="170" y="180" width="10" height="10" rx="3" fill="url(#g)"/><rect x="180" y="180" width="10" height="10" rx="3" fill="url(#g)"/><rect x="200" y="180" width="10" height="10" rx="3" fill="url(#g)"/><rect x="210" y="180" width="10" height="10" rx="3" fill="url(#g)"/><rect x="220" y="180" width="10" height="10" rx="3" fill="url(#g)"/><rect x="270" y="180" width="10" height="10" rx="3" fill="url(#g)"/><rect x="280" y="180" width="10" height="10" rx="3" fill="url(#g)"/><rect x="310" y="180" width="10" height="10" rx="3" fill="url(#g)"/><rect x="320" y="180" width="10" height="10" rx="3" fill="url(#g)"/><rect x="340" y="180" width="10" height="10" rx="3" fill="url(#g)"/><rect x="360" y="180" width="10" height="10" rx="3" fill="url(#g)"/><rect x="370" y="180" width="10" height="10" rx="3" fill="url(#g)"/><rect x="380" y="180" width="10" height="10" rx="3" fill="url(#g)"/><rect x="60" y="190" width="10" height="10" rx="3" fill="url(#g)"/><rect x="80" y="190" width="10" height="10" rx="3" fill="url(#g)"/><rect x="140" y="190" width="10" height="10" rx="3" fill="url(#g)"/><rect x="170" y="190" width="10" height="10" rx="3" fill="url(#g)"/><rect x="180" y="190" width="10" height="10" rx="3" fill="url(#g)"/><rect x="200" y="190" width="10" height="10" rx="3" fill="url(#g)"/><rect x="210" y="190" width="10" height="10" rx="3" fill="url(#g)"/><rect x="270" y="190" width="10" height="10" rx="3" fill="url(#g)"/><rect x="300" y="190" width="10" height="10" rx="3" fill="url(#g)"/><rect x="380" y="190" width="10" height="10" rx="3" fill="url(#g)"/><rect x="400" y="190" width="10" height="10" rx="3" fill="url(#g)"/><rect x="80" y="200" width="10" height="10" rx="3" fill="url(#g)"/><rect x="90" y="200" width="10" height="10" rx="3" fill="url(#g)"/><rect x="100" y="200" width="10" height="10" rx="3" fill="url(#g)"/><rect x="120" y="200" width="10" height="10" rx="3" fill="url(#g)"/><rect x="150" y="200" width="10" height="10" rx="3" fill="url(#g)"/><rect x="160" y="200" width="10" height="10" rx="3" fill="url(#g)"/><rect x="170" y="200" width="10" height="10" rx="3" fill="url(#g)"/><rect x="200" y="200" width="10" height="10" rx="3" fill="url(#g)"/><rect x="220" y="200" width="10" height="10" rx="3" fill="url(#g)"/><rect x="240" y="200" width="10" height="10" rx="3" fill="url(#g)"/><rect x="330" y="200" width="10" height="10" rx="3" fill="url(#g)"/><rect x="340" y="200" width="10" height="10" rx="3" fill="url(#g)"/><rect x="350" y="200" width="10" height="10" rx="3" fill="url(#g)"/><rect x="370" y="200" width="10" height="10" rx="3" fill="url(#g)"/><rect x="380" y="200" width="10" height="10" rx="3" fill="url(#g)"/><rect x="400" y="200" width="10" height="10" rx="3" fill="url(#g)"/><rect x="50" y="210" width="10" height="10" rx="3" fill="url(#g)"/><rect x="70" y="210" width="10" height="10" rx="3" fill="url(#g)"/><rect x="110" y="210" width="10" height="10" rx="3" fill="url(#g)"/><rect x="120" y="210" width="10" height="10" rx="3" fill="url(#g)"/><rect x="130" y="210" width="10" height="10" rx="3" fill="url(#g)"/><rect x="150" y="210" width="10" height="10" rx="3" fill="url(#g)"/><rect x="180" y="210" width="10" height="10" rx="3" fill="url(#g)"/><rect x="190" y="210" width="10" height="10" rx="3" fill="url(#g)"/><rect x="200" y="210" width="10" height="10" rx="3" fill="url(#g)"/><rect x="230" y="210" width="10" height="10" rx="3" fill="url(#g)"/><rect x="240" y="210" width="10" height="10" rx="3" fill="url(#g)"/><rect x="250" y="210" width="10" height="10" rx="3" fill="url(#g)"/><rect x="300" y="210" width="10" height="10" rx="3" fill="url(#g)"/><rect x="310" y="210" width="10" height="10" rx="3" fill="url(#g)"/><rect x="320" y="210" width="10" height="10" rx="3" fill="url(#g)"/><rect x="330" y="210" width="10" height="10" rx="3" fill="url(#g)"/><rect x="350" y="210" width="10" height="10" rx="3" fill="url(#g)"/><rect x="360" y="210" width="10" height="10" rx="3" fill="url(#g)"/><rect x="370" y="210" width="10" height="10" rx="3" fill="url(#g)"/><rect x="40" y="220" width="10" height="10" rx="3" fill="url(#g)"/><rect x="50" y="220" width="10" height="10" rx="3" fill="url(#g)"/><rect x="70" y="220" width="10" height="10" rx="3" fill="url(#g)"/><rect x="80" y="220" width="10" height="10" rx="3" fill="url(#g)"/><rect x="100" y="220" width="10" height="10" rx="3" fill="url(#g)"/><rect x="120" y="220" width="10" height="10" rx="3" fill="url(#g)"/><rect x="140" y="220" width="10" height="10" rx="3" fill="url(#g)"/><rect x="150" y="220" width="10" height="10" rx="3" fill="url(#g)"/><rect x="190" y="220" width="10" height="10" rx="3" fill="url(#g)"/><rect x="200" y="220" width="10" height="10" rx="3" fill="url(#g)"/><rect x="210" y="220" width="10" height="10" rx="3" fill="url(#g)"/><rect x="230" y="220" width="10" height="10" rx="3" fill="url(#g)"/><rect x="240" y="220" width="10" height="10" rx="3" fill="url(#g)"/><rect x="250" y="220" width="10" height="10" rx="3" fill="url(#g)"/><rect x="260" y="220" width="10" height="10" rx="3" fill="url(#g)"/><rect x="270" y="220" width="10" height="10" rx="3" fill="url(#g)"/><rect x="280" y="220" width="10" height="10" rx="3" fill="url(#g)"/><rect x="290" y="220" width="10" height="10" rx="3" fill="url(#g)"/><rect x="310" y="220" width="10" height="10" rx="3" fill="url(#g)"/><rect x="330" y="220" width="10" height="10" rx="3" fill="url(#g)"/><rect x="380" y="220" width="10" height="10" rx="3" fill="url(#g)"/><rect x="40" y="230" width="10" height="10" rx="3" fill="url(#g)"/><rect x="50" y="230" width="10" height="10" rx="3" fill="url(#g)"/><rect x="60" y="230" width="10" height="10" rx="3" fill="url(#g)"/><rect x="80" y="230" width="10" height="10" rx="3" fill="url(#g)"/><rect x="90" y="230" width="10" height="10" rx="3" fill="url(#g)"/><rect x="110" y="230" width="10" height="10" rx="3" fill="url(#g)"/><rect x="130" y="230" width="10" height="10" rx="3" fill="url(#g)"/><rect x="170" y="230" width="10" height="10" rx="3" fill="url(#g)"/><rect x="190" y="230" width="10" height="10" rx="3" fill="url(#g)"/><rect x="200" y="230" width="10" height="10" rx="3" fill="url(#g)"/><rect x="210" y="230" width="10" height="10" rx="3" fill="url(#g)"/><rect x="220" y="230" width="10" height="10" rx="3" fill="url(#g)"/><rect x="230" y="230" width="10" height="10" rx="3" fill="url(#g)"/><rect x="240" y="230" width="10" height="10" rx="3" fill="url(#g)"/><rect x="250" y="230" width="10" height="10" rx="3" fill="url(#g)"/><rect x="260" y="230" width="10" height="10" rx="3" fill="url(#g)"/><rect x="330" y="230" width="10" height="10" rx="3" fill="url(#g)"/><rect x="350" y="230" width="10" height="10" rx="3" fill="url(#g)"/><rect x="360" y="230" width="10" height="10" rx="3" fill="url(#g)"/><rect x="380" y="230" width="10" height="10" rx="3" fill="url(#g)"/><rect x="390" y="230" width="10" height="10" rx="3" fill="url(#g)"/><rect x="40" y="240" width="10" height="10" rx="3" fill="url(#g)"/><rect x="50" y="240" width="10" height="10" rx="3" fill="url(#g)"/><rect x="70" y="240" width="10" height="10" rx="3" fill="url(#g)"/><rect x="80" y="240" width="10" height="10" rx="3" fill="url(#g)"/><rect x="100" y="240" width="10" height="10" rx="3" fill="url(#g)"/><rect x="110" y="240" width="10" height="10" rx="3" fill="url(#g)"/><rect x="130" y="240" width="10" height="10" rx="3" fill="url(#g)"/><rect x="140" y="240" width="10" height="10" rx="3" fill="url(#g)"/><rect x="150" y="240" width="10" height="10" rx="3" fill="url(#g)"/><rect x="160" y="240" width="10" height="10" rx="3" fill="url(#g)"/><rect x="170" y="240" width="10" height="10" rx="3" fill="url(#g)"/><rect x="190" y="240" width="10" height="10" rx="3" fill="url(#g)"/><rect x="210" y="240" width="10" height="10" rx="3" fill="url(#g)"/><rect x="220" y="240" width="10" height="10" rx="3" fill="url(#g)"/><rect x="230" y="240" width="10" height="10" rx="3" fill="url(#g)"/><rect x="240" y="240" width="10" height="10" rx="3" fill="url(#g)"/><rect x="250" y="240" width="10" height="10" rx="3" fill="url(#g)"/><rect x="270" y="240" width="10" height="10" rx="3" fill="url(#g)"/><rect x="280" y="240" width="10" height="10" rx="3" fill="url(#g)"/><rect x="310" y="240" width="10" height="10" rx="3" fill="url(#g)"/><rect x="340" y="240" width="10" height="10" rx="3" fill="url(#g)"/><rect x="380" y="240" width="10" height="10" rx="3" fill="url(#g)"/><rect x="400" y="240" width="10" height="10" rx="3" fill="url(#g)"/><rect x="40" y="250" width="10" height="10" rx="3" fill="url(#g)"/><rect x="60" y="250" width="10" height="10" rx="3" fill="url(#g)"/><rect x="70" y="250" width="10" height="10" rx="3" fill="url(#g)"/><rect x="110" y="250" width="10" height="10" rx="3" fill="url(#g)"/><rect x="160" y="250" width="10" height="10" rx="3" fill="url(#g)"/><rect x="170" y="250" width="10" height="10" rx="3" fill="url(#g)"/><rect x="180" y="250" width="10" height="10" rx="3" fill="url(#g)"/><rect x="190" y="250" width="10" height="10" rx="3" fill="url(#g)"/><rect x="230" y="250" width="10" height="10" rx="3" fill="url(#g)"/><rect x="250" y="250" width="10" height="10" rx="3" fill="url(#g)"/><rect x="260" y="250" width="10" height="10" rx="3" fill="url(#g)"/><rect x="280" y="250" width="10" height="10" rx="3" fill="url(#g)"/><rect x="290" y="250" width="10" height="10" rx="3" fill="url(#g)"/><rect x="310" y="250" width="10" height="10" rx="3" fill="url(#g)"/><rect x="330" y="250" width="10" height="10" rx="3" fill="url(#g)"/><rect x="360" y="250" width="10" height="10" rx="3" fill="url(#g)"/><rect x="380" y="250" width="10" height="10" rx="3" fill="url(#g)"/><rect x="400" y="250" width="10" height="10" rx="3" fill="url(#g)"/><rect x="40" y="260" width="10" height="10" rx="3" fill="url(#g)"/><rect x="100" y="260" width="10" height="10" rx="3" fill="url(#g)"/><rect x="120" y="260" width="10" height="10" rx="3" fill="url(#g)"/><rect x="150" y="260" width="10" height="10" rx="3" fill="url(#g)"/><rect x="190" y="260" width="10" height="10" rx="3" fill="url(#g)"/><rect x="200" y="260" width="10" height="10" rx="3" fill="url(#g)"/><rect x="210" y="260" width="10" height="10" rx="3" fill="url(#g)"/><rect x="220" y="260" width="10" height="10" rx="3" fill="url(#g)"/><rect x="270" y="260" width="10" height="10" rx="3" fill="url(#g)"/><rect x="280" y="260" width="10" height="10" rx="3" fill="url(#g)"/><rect x="310" y="260" width="10" height="10" rx="3" fill="url(#g)"/><rect x="320" y="260" width="10" height="10" rx="3" fill="url(#g)"/><rect x="330" y="260" width="10" height="10" rx="3" fill="url(#g)"/><rect x="380" y="260" width="10" height="10" rx="3" fill="url(#g)"/><rect x="400" y="260" width="10" height="10" rx="3" fill="url(#g)"/><rect x="60" y="270" width="10" height="10" rx="3" fill="url(#g)"/><rect x="90" y="270" width="10" height="10" rx="3" fill="url(#g)"/><rect x="110" y="270" width="10" height="10" rx="3" fill="url(#g)"/><rect x="160" y="270" width="10" height="10" rx="3" fill="url(#g)"/><rect x="220" y="270" width="10" height="10" rx="3" fill="url(#g)"/><rect x="230" y="270" width="10" height="10" rx="3" fill="url(#g)"/><rect x="250" y="270" width="10" height="10" rx="3" fill="url(#g)"/><rect x="260" y="270" width="10" height="10" rx="3" fill="url(#g)"/><rect x="280" y="270" width="10" height="10" rx="3" fill="url(#g)"/><rect x="300" y="270" width="10" height="10" rx="3" fill="url(#g)"/><rect x="320" y="270" width="10" height="10" rx="3" fill="url(#g)"/><rect x="350" y="270" width="10" height="10" rx="3" fill="url(#g)"/><rect x="370" y="270" width="10" height="10" rx="3" fill="url(#g)"/><rect x="380" y="270" width="10" height="10" rx="3" fill="url(#g)"/><rect x="390" y="270" width="10" height="10" rx="3" fill="url(#g)"/><rect x="400" y="270" width="10" height="10" rx="3" fill="url(#g)"/><rect x="80" y="280" width="10" height="10" rx="3" fill="url(#g)"/><rect x="100" y="280" width="10" height="10" rx="3" fill="url(#g)"/><rect x="110" y="280" width="10" height="10" rx="3" fill="url(#g)"/><rect x="120" y="280" width="10" height="10" rx="3" fill="url(#g)"/><rect x="130" y="280" width="10" height="10" rx="3" fill="url(#g)"/><rect x="150" y="280" width="10" height="10" rx="3" fill="url(#g)"/><rect x="160" y="280" width="10" height="10" rx="3" fill="url(#g)"/><rect x="170" y="280" width="10" height="10" rx="3" fill="url(#g)"/><rect x="190" y="280" width="10" height="10" rx="3" fill="url(#g)"/><rect x="200" y="280" width="10" height="10" rx="3" fill="url(#g)"/><rect x="210" y="280" width="10" height="10" rx="3" fill="url(#g)"/><rect x="230" y="280" width="10" height="10" rx="3" fill="url(#g)"/><rect x="290" y="280" width="10" height="10" rx="3" fill="url(#g)"/><rect x="300" y="280" width="10" height="10" rx="3" fill="url(#g)"/><rect x="310" y="280" width="10" height="10" rx="3" fill="url(#g)"/><rect x="340" y="280" width="10" height="10" rx="3" fill="url(#g)"/><rect x="360" y="280" width="10" height="10" rx="3" fill="url(#g)"/><rect x="380" y="280" width="10" height="10" rx="3" fill="url(#g)"/><rect x="390" y="280" width="10" height="10" rx="3" fill="url(#g)"/><rect x="40" y="290" width="10" height="10" rx="3" fill="url(#g)"/><rect x="60" y="290" width="10" height="10" rx="3" fill="url(#g)"/><rect x="70" y="290" width="10" height="10" rx="3" fill="url(#g)"/><rect x="80" y="290" width="10" height="10" rx="3" fill="url(#g)"/><rect x="90" y="290" width="10" height="10" rx="3" fill="url(#g)"/><rect x="120" y="290" width="10" height="10" rx="3" fill="url(#g)"/><rect x="130" y="290" width="10" height="10" rx="3" fill="url(#g)"/><rect x="150" y="290" width="10" height="10" rx="3" fill="url(#g)"/><rect x="160" y="290" width="10" height="10" rx="3" fill="url(#g)"/><rect x="200" y="290" width="10" height="10" rx="3" fill="url(#g)"/><rect x="260" y="290" width="10" height="10" rx="3" fill="url(#g)"/><rect x="280" y="290" width="10" height="10" rx="3" fill="url(#g)"/><rect x="290" y="290" width="10" height="10" rx="3" fill="url(#g)"/><rect x="320" y="290" width="10" height="10" rx="3" fill="url(#g)"/><rect x="330" y="290" width="10" height="10" rx="3" fill="url(#g)"/><rect x="340" y="290" width="10" height="10" rx="3" fill="url(#g)"/><rect x="350" y="290" width="10" height="10" rx="3" fill="url(#g)"/><rect x="360" y="290" width="10" height="10" rx="3" fill="url(#g)"/><rect x="370" y="290" width="10" height="10" rx="3" fill="url(#g)"/><rect x="380" y="290" width="10" height="10" rx="3" fill="url(#g)"/><rect x="60" y="300" width="10" height="10" rx="3" fill="url(#g)"/><rect x="70" y="300" width="10" height="10" rx="3" fill="url(#g)"/><rect x="100" y="300" width="10" height="10" rx="3" fill="url(#g)"/><rect x="110" y="300" width="10" height="10" rx="3" fill="url(#g)"/><rect x="150" y="300" width="10" height="10" rx="3" fill="url(#g)"/><rect x="170" y="300" width="10" height="10" rx="3" fill="url(#g)"/><rect x="230" y="300" width="10" height="10" rx="3" fill="url(#g)"/><rect x="240" y="300" width="10" height="10" rx="3" fill="url(#g)"/><rect x="260" y="300" width="10" height="10" rx="3" fill="url(#g)"/><rect x="270" y="300" width="10" height="10" rx="3" fill="url(#g)"/><rect x="280" y="300" width="10" height="10" rx="3" fill="url(#g)"/><rect x="290" y="300" width="10" height="10" rx="3" fill="url(#g)"/><rect x="320" y="300" width="10" height="10" rx="3" fill="url(#g)"/><rect x="330" y="300" width="10" height="10" rx="3" fill="url(#g)"/><rect x="350" y="300" width="10" height="10" rx="3" fill="url(#g)"/><rect x="370" y="300" width="10" height="10" rx="3" fill="url(#g)"/><rect x="60" y="310" width="10" height="10" rx="3" fill="url(#g)"/><rect x="70" y="310" width="10" height="10" rx="3" fill="url(#g)"/><rect x="80" y="310" width="10" height="10" rx="3" fill="url(#g)"/><rect x="90" y="310" width="10" height="10" rx="3" fill="url(#g)"/><rect x="110" y="310" width="10" height="10" rx="3" fill="url(#g)"/><rect x="150" y="310" width="10" height="10" rx="3" fill="url(#g)"/><rect x="170" y="310" width="10" height="10" rx="3" fill="url(#g)"/><rect x="190" y="310" width="10" height="10" rx="3" fill="url(#g)"/><rect x="200" y="310" width="10" height="10" rx="3" fill="url(#g)"/><rect x="210" y="310" width="10" height="10" rx="3" fill="url(#g)"/><rect x="250" y="310" width="10" height="10" rx="3" fill="url(#g)"/><rect x="260" y="310" width="10" height="10" rx="3" fill="url(#g)"/><rect x="270" y="310" width="10" height="10" rx="3" fill="url(#g)"/><rect x="300" y="310" width="10" height="10" rx="3" fill="url(#g)"/><rect x="340" y="310" width="10" height="10" rx="3" fill="url(#g)"/><rect x="40" y="320" width="10" height="10" rx="3" fill="url(#g)"/><rect x="50" y="320" width="10" height="10" rx="3" fill="url(#g)"/><rect x="60" y="320" width="10" height="10" rx="3" fill="url(#g)"/><rect x="70" y="320" width="10" height="10" rx="3" fill="url(#g)"/><rect x="100" y="320" width="10" height="10" rx="3" fill="url(#g)"/><rect x="110" y="320" width="10" height="10" rx="3" fill="url(#g)"/><rect x="120" y="320" width="10" height="10" rx="3" fill="url(#g)"/><rect x="130" y="320" width="10" height="10" rx="3" fill="url(#g)"/><rect x="190" y="320" width="10" height="10" rx="3" fill="url(#g)"/><rect x="210" y="320" width="10" height="10" rx="3" fill="url(#g)"/><rect x="240" y="320" width="10" height="10" rx="3" fill="url(#g)"/><rect x="250" y="320" width="10" height="10" rx="3" fill="url(#g)"/><rect x="280" y="320" width="10" height="10" rx="3" fill="url(#g)"/><rect x="310" y="320" width="10" height="10" rx="3" fill="url(#g)"/><rect x="320" y="320" width="10" height="10" rx="3" fill="url(#g)"/><rect x="330" y="320" width="10" height="10" rx="3" fill="url(#g)"/><rect x="340" y="320" width="10" height="10" rx="3" fill="url(#g)"/><rect x="350" y="320" width="10" height="10" rx="3" fill="url(#g)"/><rect x="360" y="320" width="10" height="10" rx="3" fill="url(#g)"/><rect x="390" y="320" width="10" height="10" rx="3" fill="url(#g)"/><rect x="400" y="320" width="10" height="10" rx="3" fill="url(#g)"/><rect x="120" y="330" width="10" height="10" rx="3" fill="url(#g)"/><rect x="160" y="330" width="10" height="10" rx="3" fill="url(#g)"/><rect x="190" y="330" width="10" height="10" rx="3" fill="url(#g)"/><rect x="210" y="330" width="10" height="10" rx="3" fill="url(#g)"/><rect x="220" y="330" width="10" height="10" rx="3" fill="url(#g)"/><rect x="280" y="330" width="10" height="10" rx="3" fill="url(#g)"/><rect x="300" y="330" width="10" height="10" rx="3" fill="url(#g)"/><rect x="310" y="330" width="10" height="10" rx="3" fill="url(#g)"/><rect x="320" y="330" width="10" height="10" rx="3" fill="url(#g)"/><rect x="360" y="330" width="10" height="10" rx="3" fill="url(#g)"/><rect x="370" y="330" width="10" height="10" rx="3" fill="url(#g)"/><rect x="390" y="330" width="10" height="10" rx="3" fill="url(#g)"/><rect x="40" y="340" width="10" height="10" rx="3" fill="url(#g)"/><rect x="50" y="340" width="10" height="10" rx="3" fill="url(#g)"/><rect x="60" y="340" width="10" height="10" rx="3" fill="url(#g)"/><rect x="70" y="340" width="10" height="10" rx="3" fill="url(#g)"/><rect x="80" y="340" width="10" height="10" rx="3" fill="url(#g)"/><rect x="90" y="340" width="10" height="10" rx="3" fill="url(#g)"/><rect x="100" y="340" width="10" height="10" rx="3" fill="url(#g)"/><rect x="120" y="340" width="10" height="10" rx="3" fill="url(#g)"/><rect x="140" y="340" width="10" height="10" rx="3" fill="url(#g)"/><rect x="170" y="340" width="10" height="10" rx="3" fill="url(#g)"/><rect x="190" y="340" width="10" height="10" rx="3" fill="url(#g)"/><rect x="220" y="340" width="10" height="10" rx="3" fill="url(#g)"/><rect x="240" y="340" width="10" height="10" rx="3" fill="url(#g)"/><rect x="270" y="340" width="10" height="10" rx="3" fill="url(#g)"/><rect x="280" y="340" width="10" height="10" rx="3" fill="url(#g)"/><rect x="290" y="340" width="10" height="10" rx="3" fill="url(#g)"/><rect x="320" y="340" width="10" height="10" rx="3" fill="url(#g)"/><rect x="340" y="340" width="10" height="10" rx="3" fill="url(#g)"/><rect x="360" y="340" width="10" height="10" rx="3" fill="url(#g)"/><rect x="370" y="340" width="10" height="10" rx="3" fill="url(#g)"/><rect x="380" y="340" width="10" height="10" rx="3" fill="url(#g)"/><rect x="40" y="350" width="10" height="10" rx="3" fill="url(#g)"/><rect x="100" y="350" width="10" height="10" rx="3" fill="url(#g)"/><rect x="120" y="350" width="10" height="10" rx="3" fill="url(#g)"/><rect x="160" y="350" width="10" height="10" rx="3" fill="url(#g)"/><rect x="170" y="350" width="10" height="10" rx="3" fill="url(#g)"/><rect x="190" y="350" width="10" height="10" rx="3" fill="url(#g)"/><rect x="200" y="350" width="10" height="10" rx="3" fill="url(#g)"/><rect x="280" y="350" width="10" height="10" rx="3" fill="url(#g)"/><rect x="310" y="350" width="10" height="10" rx="3" fill="url(#g)"/><rect x="320" y="350" width="10" height="10" rx="3" fill="url(#g)"/><rect x="360" y="350" width="10" height="10" rx="3" fill="url(#g)"/><rect x="380" y="350" width="10" height="10" rx="3" fill="url(#g)"/><rect x="40" y="360" width="10" height="10" rx="3" fill="url(#g)"/><rect x="60" y="360" width="10" height="10" rx="3" fill="url(#g)"/><rect x="70" y="360" width="10" height="10" rx="3" fill="url(#g)"/><rect x="80" y="360" width="10" height="10" rx="3" fill="url(#g)"/><rect x="100" y="360" width="10" height="10" rx="3" fill="url(#g)"/><rect x="120" y="360" width="10" height="10" rx="3" fill="url(#g)"/><rect x="130" y="360" width="10" height="10" rx="3" fill="url(#g)"/><rect x="140" y="360" width="10" height="10" rx="3" fill="url(#g)"/><rect x="180" y="360" width="10" height="10" rx="3" fill="url(#g)"/><rect x="190" y="360" width="10" height="10" rx="3" fill="url(#g)"/><rect x="210" y="360" width="10" height="10" rx="3" fill="url(#g)"/><rect x="220" y="360" width="10" height="10" rx="3" fill="url(#g)"/><rect x="270" y="360" width="10" height="10" rx="3" fill="url(#g)"/><rect x="280" y="360" width="10" height="10" rx="3" fill="url(#g)"/><rect x="320" y="360" width="10" height="10" rx="3" fill="url(#g)"/><rect x="330" y="360" width="10" height="10" rx="3" fill="url(#g)"/><rect x="340" y="360" width="10" height="10" rx="3" fill="url(#g)"/><rect x="350" y="360" width="10" height="10" rx="3" fill="url(#g)"/><rect x="360" y="360" width="10" height="10" rx="3" fill="url(#g)"/><rect x="370" y="360" width="10" height="10" rx="3" fill="url(#g)"/><rect x="380" y="360" width="10" height="10" rx="3" fill="url(#g)"/><rect x="400" y="360" width="10" height="10" rx="3" fill="url(#g)"/><rect x="40" y="370" width="10" height="10" rx="3" fill="url(#g)"/><rect x="60" y="370" width="10" height="10" rx="3" fill="url(#g)"/><rect x="70" y="370" width="10" height="10" rx="3" fill="url(#g)"/><rect x="80" y="370" width="10" height="10" rx="3" fill="url(#g)"/><rect x="100" y="370" width="10" height="10" rx="3" fill="url(#g)"/><rect x="150" y="370" width="10" height="10" rx="3" fill="url(#g)"/><rect x="160" y="370" width="10" height="10" rx="3" fill="url(#g)"/><rect x="170" y="370" width="10" height="10" rx="3" fill="url(#g)"/><rect x="190" y="370" width="10" height="10" rx="3" fill="url(#g)"/><rect x="200" y="370" width="10" height="10" rx="3" fill="url(#g)"/><rect x="210" y="370" width="10" height="10" rx="3" fill="url(#g)"/><rect x="220" y="370" width="10" height="10" rx="3" fill="url(#g)"/><rect x="290" y="370" width="10" height="10" rx="3" fill="url(#g)"/><rect x="320" y="370" width="10" height="10" rx="3" fill="url(#g)"/><rect x="340" y="370" width="10" height="10" rx="3" fill="url(#g)"/><rect x="40" y="380" width="10" height="10" rx="3" fill="url(#g)"/><rect x="60" y="380" width="10" height="10" rx="3" fill="url(#g)"/><rect x="70" y="380" width="10" height="10" rx="3" fill="url(#g)"/><rect x="80" y="380" width="10" height="10" rx="3" fill="url(#g)"/><rect x="100" y="380" width="10" height="10" rx="3" fill="url(#g)"/><rect x="130" y="380" width="10" height="10" rx="3" fill="url(#g)"/><rect x="150" y="380" width="10" height="10" rx="3" fill="url(#g)"/><rect x="170" y="380" width="10" height="10" rx="3" fill="url(#g)"/><rect x="180" y="380" width="10" height="10" rx="3" fill="url(#g)"/><rect x="220" y="380" width="10" height="10" rx="3" fill="url(#g)"/><rect x="230" y="380" width="10" height="10" rx="3" fill="url(#g)"/><rect x="240" y="380" width="10" height="10" rx="3" fill="url(#g)"/><rect x="250" y="380" width="10" height="10" rx="3" fill="url(#g)"/><rect x="310" y="380" width="10" height="10" rx="3" fill="url(#g)"/><rect x="320" y="380" width="10" height="10" rx="3" fill="url(#g)"/><rect x="340" y="380" width="10" height="10" rx="3" fill="url(#g)"/><rect x="380" y="380" width="10" height="10" rx="3" fill="url(#g)"/><rect x="390" y="380" width="10" height="10" rx="3" fill="url(#g)"/><rect x="40" y="390" width="10" height="10" rx="3" fill="url(#g)"/><rect x="100" y="390" width="10" height="10" rx="3" fill="url(#g)"/><rect x="130" y="390" width="10" height="10" rx="3" fill="url(#g)"/><rect x="150" y="390" width="10" height="10" rx="3" fill="url(#g)"/><rect x="170" y="390" width="10" height="10" rx="3" fill="url(#g)"/><rect x="180" y="390" width="10" height="10" rx="3" fill="url(#g)"/><rect x="190" y="390" width="10" height="10" rx="3" fill="url(#g)"/><rect x="200" y="390" width="10" height="10" rx="3" fill="url(#g)"/><rect x="210" y="390" width="10" height="10" rx="3" fill="url(#g)"/><rect x="250" y="390" width="10" height="10" rx="3" fill="url(#g)"/><rect x="280" y="390" width="10" height="10" rx="3" fill="url(#g)"/><rect x="310" y="390" width="10" height="10" rx="3" fill="url(#g)"/><rect x="330" y="390" width="10" height="10" rx="3" fill="url(#g)"/><rect x="350" y="390" width="10" height="10" rx="3" fill="url(#g)"/><rect x="380" y="390" width="10" height="10" rx="3" fill="url(#g)"/><rect x="390" y="390" width="10" height="10" rx="3" fill="url(#g)"/><rect x="40" y="400" width="10" height="10" rx="3" fill="url(#g)"/><rect x="50" y="400" width="10" height="10" rx="3" fill="url(#g)"/><rect x="60" y="400" width="10" height="10" rx="3" fill="url(#g)"/><rect x="70" y="400" width="10" height="10" rx="3" fill="url(#g)"/><rect x="80" y="400" width="10" height="10" rx="3" fill="url(#g)"/><rect x="90" y="400" width="10" height="10" rx="3" fill="url(#g)"/><rect x="100" y="400" width="10" height="10" rx="3" fill="url(#g)"/><rect x="130" y="400" width="10" height="10" rx="3" fill="url(#g)"/><rect x="150" y="400" width="10" height="10" rx="3" fill="url(#g)"/><rect x="160" y="400" width="10" height="10" rx="3" fill="url(#g)"/><rect x="190" y="400" width="10" height="10" rx="3" fill="url(#g)"/><rect x="210" y="400" width="10" height="10" rx="3" fill="url(#g)"/><rect x="230" y="400" width="10" height="10" rx="3" fill="url(#g)"/><rect x="260" y="400" width="10" height="10" rx="3" fill="url(#g)"/><rect x="270" y="400" width="10" height="10" rx="3" fill="url(#g)"/><rect x="280" y="400" width="10" height="10" rx="3" fill="url(#g)"/><rect x="300" y="400" width="10" height="10" rx="3" fill="url(#g)"/><rect x="310" y="400" width="10" height="10" rx="3" fill="url(#g)"/><rect x="380" y="400" width="10" height="10" rx="3" fill="url(#g)"/><rect x="390" y="400" width="10" height="10" rx="3" fill="url(#g)"/><rect x="400" y="400" width="10" height="10" rx="3" fill="url(#g)"/></svg>